%TF.GenerationSoftware,KiCad,Pcbnew,(5.1.9)-1*%
%TF.CreationDate,2022-07-01T06:07:01-07:00*%
%TF.ProjectId,GALIL,47414c49-4c2e-46b6-9963-61645f706362,rev?*%
%TF.SameCoordinates,Original*%
%TF.FileFunction,Soldermask,Bot*%
%TF.FilePolarity,Negative*%
%FSLAX46Y46*%
G04 Gerber Fmt 4.6, Leading zero omitted, Abs format (unit mm)*
G04 Created by KiCad (PCBNEW (5.1.9)-1) date 2022-07-01 06:07:01*
%MOMM*%
%LPD*%
G01*
G04 APERTURE LIST*
%ADD10O,2.000000X1.905000*%
%ADD11R,2.000000X1.905000*%
%ADD12O,3.500000X3.500000*%
%ADD13O,1.905000X2.000000*%
%ADD14R,1.905000X2.000000*%
%ADD15C,1.905000*%
%ADD16C,1.258000*%
%ADD17C,1.208000*%
%ADD18C,3.175000*%
%ADD19R,1.700000X1.700000*%
%ADD20O,1.700000X1.700000*%
%ADD21O,2.400000X1.600000*%
%ADD22R,2.400000X1.600000*%
%ADD23O,3.600000X1.800000*%
%ADD24C,3.500000*%
%ADD25C,2.032000*%
%ADD26C,1.100000*%
%ADD27C,1.200000*%
%ADD28R,2.000000X2.000000*%
%ADD29R,1.200000X1.000000*%
%ADD30C,0.750000*%
%ADD31R,1.000000X1.550000*%
%ADD32C,1.092200*%
%ADD33R,1.800000X1.900000*%
%ADD34R,0.900000X0.800000*%
G04 APERTURE END LIST*
D10*
%TO.C,U14*%
X183032400Y-91744800D03*
X183032400Y-94284800D03*
D11*
X183032400Y-96824800D03*
D12*
X166372400Y-94284800D03*
%TD*%
D13*
%TO.C,U11*%
X81915000Y-154305000D03*
X79375000Y-154305000D03*
D14*
X76835000Y-154305000D03*
D12*
X79375000Y-137645000D03*
%TD*%
D13*
%TO.C,U10*%
X55245000Y-154305000D03*
X52705000Y-154305000D03*
D14*
X50165000Y-154305000D03*
D12*
X52705000Y-137645000D03*
%TD*%
D15*
%TO.C,U1*%
X101473000Y-98501200D03*
X101473000Y-101041200D03*
X101473000Y-103581200D03*
X101473000Y-106121200D03*
X101473000Y-108661200D03*
X101473000Y-111201200D03*
X101473000Y-113741200D03*
X101473000Y-116281200D03*
X101473000Y-118821200D03*
X86233000Y-118821200D03*
X86233000Y-116281200D03*
X86233000Y-113741200D03*
X86233000Y-111201200D03*
X86233000Y-108661200D03*
X86233000Y-106121200D03*
X86233000Y-103581200D03*
X86233000Y-101041200D03*
X86233000Y-98501200D03*
X101473000Y-60401200D03*
X101473000Y-62941200D03*
X101473000Y-65481200D03*
X101473000Y-68021200D03*
X101473000Y-70561200D03*
X101473000Y-73101200D03*
X101473000Y-75641200D03*
X101473000Y-78181200D03*
X101473000Y-80721200D03*
X101473000Y-83261200D03*
X101473000Y-85801200D03*
X101473000Y-88341200D03*
X101473000Y-90881200D03*
X101473000Y-93421200D03*
X86233000Y-95961200D03*
X86233000Y-93421200D03*
X86233000Y-90881200D03*
X86233000Y-88341200D03*
X86233000Y-85801200D03*
X86233000Y-83261200D03*
X86233000Y-80721200D03*
X86233000Y-78181200D03*
X86233000Y-75641200D03*
X86233000Y-73101200D03*
X86233000Y-70561200D03*
X86233000Y-68021200D03*
X86233000Y-65481200D03*
D16*
X89283000Y-76911200D03*
X89283000Y-74371200D03*
X89283000Y-71831200D03*
X89283000Y-69291200D03*
X89283000Y-66751200D03*
D17*
X95023000Y-73371200D03*
X97023000Y-73371200D03*
X95023000Y-75371200D03*
X97023000Y-75371200D03*
X99023000Y-73371200D03*
X99023000Y-75371200D03*
D15*
X101473000Y-95961200D03*
X96393000Y-106121200D03*
X98933000Y-62941200D03*
X98933000Y-106121200D03*
X93853000Y-106121200D03*
X91313000Y-106121200D03*
X88773000Y-106121200D03*
X86233000Y-62941200D03*
X86233000Y-60401200D03*
%TD*%
%TO.C,R10*%
G36*
G01*
X57387500Y-70695000D02*
X56912500Y-70695000D01*
G75*
G02*
X56675000Y-70457500I0J237500D01*
G01*
X56675000Y-69957500D01*
G75*
G02*
X56912500Y-69720000I237500J0D01*
G01*
X57387500Y-69720000D01*
G75*
G02*
X57625000Y-69957500I0J-237500D01*
G01*
X57625000Y-70457500D01*
G75*
G02*
X57387500Y-70695000I-237500J0D01*
G01*
G37*
G36*
G01*
X57387500Y-72520000D02*
X56912500Y-72520000D01*
G75*
G02*
X56675000Y-72282500I0J237500D01*
G01*
X56675000Y-71782500D01*
G75*
G02*
X56912500Y-71545000I237500J0D01*
G01*
X57387500Y-71545000D01*
G75*
G02*
X57625000Y-71782500I0J-237500D01*
G01*
X57625000Y-72282500D01*
G75*
G02*
X57387500Y-72520000I-237500J0D01*
G01*
G37*
%TD*%
%TO.C,R9*%
G36*
G01*
X59292500Y-70695000D02*
X58817500Y-70695000D01*
G75*
G02*
X58580000Y-70457500I0J237500D01*
G01*
X58580000Y-69957500D01*
G75*
G02*
X58817500Y-69720000I237500J0D01*
G01*
X59292500Y-69720000D01*
G75*
G02*
X59530000Y-69957500I0J-237500D01*
G01*
X59530000Y-70457500D01*
G75*
G02*
X59292500Y-70695000I-237500J0D01*
G01*
G37*
G36*
G01*
X59292500Y-72520000D02*
X58817500Y-72520000D01*
G75*
G02*
X58580000Y-72282500I0J237500D01*
G01*
X58580000Y-71782500D01*
G75*
G02*
X58817500Y-71545000I237500J0D01*
G01*
X59292500Y-71545000D01*
G75*
G02*
X59530000Y-71782500I0J-237500D01*
G01*
X59530000Y-72282500D01*
G75*
G02*
X59292500Y-72520000I-237500J0D01*
G01*
G37*
%TD*%
%TO.C,R6*%
G36*
G01*
X50972500Y-76597500D02*
X50972500Y-77072500D01*
G75*
G02*
X50735000Y-77310000I-237500J0D01*
G01*
X50235000Y-77310000D01*
G75*
G02*
X49997500Y-77072500I0J237500D01*
G01*
X49997500Y-76597500D01*
G75*
G02*
X50235000Y-76360000I237500J0D01*
G01*
X50735000Y-76360000D01*
G75*
G02*
X50972500Y-76597500I0J-237500D01*
G01*
G37*
G36*
G01*
X52797500Y-76597500D02*
X52797500Y-77072500D01*
G75*
G02*
X52560000Y-77310000I-237500J0D01*
G01*
X52060000Y-77310000D01*
G75*
G02*
X51822500Y-77072500I0J237500D01*
G01*
X51822500Y-76597500D01*
G75*
G02*
X52060000Y-76360000I237500J0D01*
G01*
X52560000Y-76360000D01*
G75*
G02*
X52797500Y-76597500I0J-237500D01*
G01*
G37*
%TD*%
%TO.C,R5*%
G36*
G01*
X51010000Y-74692500D02*
X51010000Y-75167500D01*
G75*
G02*
X50772500Y-75405000I-237500J0D01*
G01*
X50272500Y-75405000D01*
G75*
G02*
X50035000Y-75167500I0J237500D01*
G01*
X50035000Y-74692500D01*
G75*
G02*
X50272500Y-74455000I237500J0D01*
G01*
X50772500Y-74455000D01*
G75*
G02*
X51010000Y-74692500I0J-237500D01*
G01*
G37*
G36*
G01*
X52835000Y-74692500D02*
X52835000Y-75167500D01*
G75*
G02*
X52597500Y-75405000I-237500J0D01*
G01*
X52097500Y-75405000D01*
G75*
G02*
X51860000Y-75167500I0J237500D01*
G01*
X51860000Y-74692500D01*
G75*
G02*
X52097500Y-74455000I237500J0D01*
G01*
X52597500Y-74455000D01*
G75*
G02*
X52835000Y-74692500I0J-237500D01*
G01*
G37*
%TD*%
%TO.C,R4*%
G36*
G01*
X50972500Y-70882500D02*
X50972500Y-71357500D01*
G75*
G02*
X50735000Y-71595000I-237500J0D01*
G01*
X50235000Y-71595000D01*
G75*
G02*
X49997500Y-71357500I0J237500D01*
G01*
X49997500Y-70882500D01*
G75*
G02*
X50235000Y-70645000I237500J0D01*
G01*
X50735000Y-70645000D01*
G75*
G02*
X50972500Y-70882500I0J-237500D01*
G01*
G37*
G36*
G01*
X52797500Y-70882500D02*
X52797500Y-71357500D01*
G75*
G02*
X52560000Y-71595000I-237500J0D01*
G01*
X52060000Y-71595000D01*
G75*
G02*
X51822500Y-71357500I0J237500D01*
G01*
X51822500Y-70882500D01*
G75*
G02*
X52060000Y-70645000I237500J0D01*
G01*
X52560000Y-70645000D01*
G75*
G02*
X52797500Y-70882500I0J-237500D01*
G01*
G37*
%TD*%
%TO.C,R3*%
G36*
G01*
X61197500Y-66250000D02*
X60722500Y-66250000D01*
G75*
G02*
X60485000Y-66012500I0J237500D01*
G01*
X60485000Y-65512500D01*
G75*
G02*
X60722500Y-65275000I237500J0D01*
G01*
X61197500Y-65275000D01*
G75*
G02*
X61435000Y-65512500I0J-237500D01*
G01*
X61435000Y-66012500D01*
G75*
G02*
X61197500Y-66250000I-237500J0D01*
G01*
G37*
G36*
G01*
X61197500Y-68075000D02*
X60722500Y-68075000D01*
G75*
G02*
X60485000Y-67837500I0J237500D01*
G01*
X60485000Y-67337500D01*
G75*
G02*
X60722500Y-67100000I237500J0D01*
G01*
X61197500Y-67100000D01*
G75*
G02*
X61435000Y-67337500I0J-237500D01*
G01*
X61435000Y-67837500D01*
G75*
G02*
X61197500Y-68075000I-237500J0D01*
G01*
G37*
%TD*%
%TO.C,C3*%
G36*
G01*
X51110000Y-78502500D02*
X51110000Y-78977500D01*
G75*
G02*
X50872500Y-79215000I-237500J0D01*
G01*
X50272500Y-79215000D01*
G75*
G02*
X50035000Y-78977500I0J237500D01*
G01*
X50035000Y-78502500D01*
G75*
G02*
X50272500Y-78265000I237500J0D01*
G01*
X50872500Y-78265000D01*
G75*
G02*
X51110000Y-78502500I0J-237500D01*
G01*
G37*
G36*
G01*
X52835000Y-78502500D02*
X52835000Y-78977500D01*
G75*
G02*
X52597500Y-79215000I-237500J0D01*
G01*
X51997500Y-79215000D01*
G75*
G02*
X51760000Y-78977500I0J237500D01*
G01*
X51760000Y-78502500D01*
G75*
G02*
X51997500Y-78265000I237500J0D01*
G01*
X52597500Y-78265000D01*
G75*
G02*
X52835000Y-78502500I0J-237500D01*
G01*
G37*
%TD*%
%TO.C,C2*%
G36*
G01*
X51177500Y-72787500D02*
X51177500Y-73262500D01*
G75*
G02*
X50940000Y-73500000I-237500J0D01*
G01*
X50340000Y-73500000D01*
G75*
G02*
X50102500Y-73262500I0J237500D01*
G01*
X50102500Y-72787500D01*
G75*
G02*
X50340000Y-72550000I237500J0D01*
G01*
X50940000Y-72550000D01*
G75*
G02*
X51177500Y-72787500I0J-237500D01*
G01*
G37*
G36*
G01*
X52902500Y-72787500D02*
X52902500Y-73262500D01*
G75*
G02*
X52665000Y-73500000I-237500J0D01*
G01*
X52065000Y-73500000D01*
G75*
G02*
X51827500Y-73262500I0J237500D01*
G01*
X51827500Y-72787500D01*
G75*
G02*
X52065000Y-72550000I237500J0D01*
G01*
X52665000Y-72550000D01*
G75*
G02*
X52902500Y-72787500I0J-237500D01*
G01*
G37*
%TD*%
%TO.C,C1*%
G36*
G01*
X51110000Y-68977500D02*
X51110000Y-69452500D01*
G75*
G02*
X50872500Y-69690000I-237500J0D01*
G01*
X50272500Y-69690000D01*
G75*
G02*
X50035000Y-69452500I0J237500D01*
G01*
X50035000Y-68977500D01*
G75*
G02*
X50272500Y-68740000I237500J0D01*
G01*
X50872500Y-68740000D01*
G75*
G02*
X51110000Y-68977500I0J-237500D01*
G01*
G37*
G36*
G01*
X52835000Y-68977500D02*
X52835000Y-69452500D01*
G75*
G02*
X52597500Y-69690000I-237500J0D01*
G01*
X51997500Y-69690000D01*
G75*
G02*
X51760000Y-69452500I0J237500D01*
G01*
X51760000Y-68977500D01*
G75*
G02*
X51997500Y-68740000I237500J0D01*
G01*
X52597500Y-68740000D01*
G75*
G02*
X52835000Y-68977500I0J-237500D01*
G01*
G37*
%TD*%
D18*
%TO.C,J3*%
X180975000Y-60960000D03*
X153035000Y-60960000D03*
D19*
X161925000Y-62230000D03*
D20*
X161925000Y-59690000D03*
X164465000Y-62230000D03*
X164465000Y-59690000D03*
X167005000Y-62230000D03*
X167005000Y-59690000D03*
X169545000Y-62230000D03*
X169545000Y-59690000D03*
X172085000Y-62230000D03*
X172085000Y-59690000D03*
%TD*%
D18*
%TO.C,J1*%
X144145000Y-60960000D03*
X116205000Y-60960000D03*
D19*
X125095000Y-62230000D03*
D20*
X125095000Y-59690000D03*
X127635000Y-62230000D03*
X127635000Y-59690000D03*
X130175000Y-62230000D03*
X130175000Y-59690000D03*
X132715000Y-62230000D03*
X132715000Y-59690000D03*
X135255000Y-62230000D03*
X135255000Y-59690000D03*
%TD*%
D21*
%TO.C,Q11*%
X133350000Y-77470000D03*
X125730000Y-80010000D03*
X133350000Y-80010000D03*
D22*
X125730000Y-77470000D03*
%TD*%
D21*
%TO.C,Q10*%
X133350000Y-70485000D03*
X125730000Y-73025000D03*
X133350000Y-73025000D03*
D22*
X125730000Y-70485000D03*
%TD*%
D23*
%TO.C,J4*%
X41325800Y-148463000D03*
X41325800Y-144653000D03*
G36*
G01*
X39775800Y-139943000D02*
X42875800Y-139943000D01*
G75*
G02*
X43125800Y-140193000I0J-250000D01*
G01*
X43125800Y-141493000D01*
G75*
G02*
X42875800Y-141743000I-250000J0D01*
G01*
X39775800Y-141743000D01*
G75*
G02*
X39525800Y-141493000I0J250000D01*
G01*
X39525800Y-140193000D01*
G75*
G02*
X39775800Y-139943000I250000J0D01*
G01*
G37*
%TD*%
D21*
%TO.C,U4*%
X133350000Y-85725000D03*
X125730000Y-93345000D03*
X133350000Y-88265000D03*
X125730000Y-90805000D03*
X133350000Y-90805000D03*
X125730000Y-88265000D03*
X133350000Y-93345000D03*
D22*
X125730000Y-85725000D03*
%TD*%
D20*
%TO.C,J2*%
X171323000Y-120269000D03*
X168783000Y-120269000D03*
X166243000Y-120269000D03*
X163703000Y-120269000D03*
D19*
X161163000Y-120269000D03*
%TD*%
D21*
%TO.C,U3*%
X135890000Y-103505000D03*
X120650000Y-136525000D03*
X135890000Y-106045000D03*
X120650000Y-133985000D03*
X135890000Y-108585000D03*
X120650000Y-131445000D03*
X135890000Y-111125000D03*
X120650000Y-128905000D03*
X135890000Y-113665000D03*
X120650000Y-126365000D03*
X135890000Y-116205000D03*
X120650000Y-123825000D03*
X135890000Y-118745000D03*
X120650000Y-121285000D03*
X135890000Y-121285000D03*
X120650000Y-118745000D03*
X135890000Y-123825000D03*
X120650000Y-116205000D03*
X135890000Y-126365000D03*
X120650000Y-113665000D03*
X135890000Y-128905000D03*
X120650000Y-111125000D03*
X135890000Y-131445000D03*
X120650000Y-108585000D03*
X135890000Y-133985000D03*
X120650000Y-106045000D03*
X135890000Y-136525000D03*
D22*
X120650000Y-103505000D03*
%TD*%
D24*
%TO.C,U2*%
X81135000Y-124670000D03*
X47135000Y-124570000D03*
X81135000Y-63320000D03*
X47135000Y-63320000D03*
D25*
X53955000Y-61984000D03*
X56495000Y-61984000D03*
X59035000Y-61984000D03*
X61575000Y-61984000D03*
X64115000Y-61984000D03*
X66655000Y-61984000D03*
X69195000Y-61984000D03*
X71735000Y-61984000D03*
G36*
G01*
X73259000Y-62492000D02*
X73259000Y-61476000D01*
G75*
G02*
X73767000Y-60968000I508000J0D01*
G01*
X74783000Y-60968000D01*
G75*
G02*
X75291000Y-61476000I0J-508000D01*
G01*
X75291000Y-62492000D01*
G75*
G02*
X74783000Y-63000000I-508000J0D01*
G01*
X73767000Y-63000000D01*
G75*
G02*
X73259000Y-62492000I0J508000D01*
G01*
G37*
%TD*%
D26*
%TO.C,SW3*%
X49225000Y-96750000D03*
D27*
X49225000Y-86550000D03*
D26*
X39625000Y-92350000D03*
D28*
X51725000Y-85000000D03*
X51775000Y-97750000D03*
D29*
X53975000Y-95850000D03*
X53975000Y-94100000D03*
X53975000Y-92350000D03*
X53975000Y-90600000D03*
X53975000Y-88850000D03*
X53975000Y-87100000D03*
%TD*%
D30*
%TO.C,SW2*%
X39265000Y-109220000D03*
X42015000Y-109220000D03*
D31*
X39790000Y-111845000D03*
X39790000Y-106595000D03*
X41490000Y-106595000D03*
X41490000Y-111845000D03*
%TD*%
D32*
%TO.C,SW1*%
X43274600Y-76946900D03*
X43223800Y-71943100D03*
D19*
X42385600Y-79829800D03*
D33*
X47110000Y-76908800D03*
X47110000Y-74445000D03*
X47110000Y-71905000D03*
D19*
X42411000Y-69060200D03*
%TD*%
%TO.C,R57*%
G36*
G01*
X57932500Y-87486500D02*
X57932500Y-87011500D01*
G75*
G02*
X58170000Y-86774000I237500J0D01*
G01*
X58670000Y-86774000D01*
G75*
G02*
X58907500Y-87011500I0J-237500D01*
G01*
X58907500Y-87486500D01*
G75*
G02*
X58670000Y-87724000I-237500J0D01*
G01*
X58170000Y-87724000D01*
G75*
G02*
X57932500Y-87486500I0J237500D01*
G01*
G37*
G36*
G01*
X56107500Y-87486500D02*
X56107500Y-87011500D01*
G75*
G02*
X56345000Y-86774000I237500J0D01*
G01*
X56845000Y-86774000D01*
G75*
G02*
X57082500Y-87011500I0J-237500D01*
G01*
X57082500Y-87486500D01*
G75*
G02*
X56845000Y-87724000I-237500J0D01*
G01*
X56345000Y-87724000D01*
G75*
G02*
X56107500Y-87486500I0J237500D01*
G01*
G37*
%TD*%
%TO.C,R56*%
G36*
G01*
X57805500Y-92312500D02*
X57805500Y-91837500D01*
G75*
G02*
X58043000Y-91600000I237500J0D01*
G01*
X58543000Y-91600000D01*
G75*
G02*
X58780500Y-91837500I0J-237500D01*
G01*
X58780500Y-92312500D01*
G75*
G02*
X58543000Y-92550000I-237500J0D01*
G01*
X58043000Y-92550000D01*
G75*
G02*
X57805500Y-92312500I0J237500D01*
G01*
G37*
G36*
G01*
X55980500Y-92312500D02*
X55980500Y-91837500D01*
G75*
G02*
X56218000Y-91600000I237500J0D01*
G01*
X56718000Y-91600000D01*
G75*
G02*
X56955500Y-91837500I0J-237500D01*
G01*
X56955500Y-92312500D01*
G75*
G02*
X56718000Y-92550000I-237500J0D01*
G01*
X56218000Y-92550000D01*
G75*
G02*
X55980500Y-92312500I0J237500D01*
G01*
G37*
%TD*%
%TO.C,R55*%
G36*
G01*
X57852500Y-96122500D02*
X57852500Y-95647500D01*
G75*
G02*
X58090000Y-95410000I237500J0D01*
G01*
X58590000Y-95410000D01*
G75*
G02*
X58827500Y-95647500I0J-237500D01*
G01*
X58827500Y-96122500D01*
G75*
G02*
X58590000Y-96360000I-237500J0D01*
G01*
X58090000Y-96360000D01*
G75*
G02*
X57852500Y-96122500I0J237500D01*
G01*
G37*
G36*
G01*
X56027500Y-96122500D02*
X56027500Y-95647500D01*
G75*
G02*
X56265000Y-95410000I237500J0D01*
G01*
X56765000Y-95410000D01*
G75*
G02*
X57002500Y-95647500I0J-237500D01*
G01*
X57002500Y-96122500D01*
G75*
G02*
X56765000Y-96360000I-237500J0D01*
G01*
X56265000Y-96360000D01*
G75*
G02*
X56027500Y-96122500I0J237500D01*
G01*
G37*
%TD*%
D34*
%TO.C,Q1*%
X62865000Y-71120000D03*
X60865000Y-70170000D03*
X60865000Y-72070000D03*
%TD*%
%TO.C,MOSFET1*%
X56785000Y-66675000D03*
X58785000Y-67625000D03*
X58785000Y-65725000D03*
%TD*%
%TO.C,C22*%
G36*
G01*
X57882500Y-85708500D02*
X57882500Y-85233500D01*
G75*
G02*
X58120000Y-84996000I237500J0D01*
G01*
X58720000Y-84996000D01*
G75*
G02*
X58957500Y-85233500I0J-237500D01*
G01*
X58957500Y-85708500D01*
G75*
G02*
X58720000Y-85946000I-237500J0D01*
G01*
X58120000Y-85946000D01*
G75*
G02*
X57882500Y-85708500I0J237500D01*
G01*
G37*
G36*
G01*
X56157500Y-85708500D02*
X56157500Y-85233500D01*
G75*
G02*
X56395000Y-84996000I237500J0D01*
G01*
X56995000Y-84996000D01*
G75*
G02*
X57232500Y-85233500I0J-237500D01*
G01*
X57232500Y-85708500D01*
G75*
G02*
X56995000Y-85946000I-237500J0D01*
G01*
X56395000Y-85946000D01*
G75*
G02*
X56157500Y-85708500I0J237500D01*
G01*
G37*
%TD*%
%TO.C,C21*%
G36*
G01*
X57755500Y-90534500D02*
X57755500Y-90059500D01*
G75*
G02*
X57993000Y-89822000I237500J0D01*
G01*
X58593000Y-89822000D01*
G75*
G02*
X58830500Y-90059500I0J-237500D01*
G01*
X58830500Y-90534500D01*
G75*
G02*
X58593000Y-90772000I-237500J0D01*
G01*
X57993000Y-90772000D01*
G75*
G02*
X57755500Y-90534500I0J237500D01*
G01*
G37*
G36*
G01*
X56030500Y-90534500D02*
X56030500Y-90059500D01*
G75*
G02*
X56268000Y-89822000I237500J0D01*
G01*
X56868000Y-89822000D01*
G75*
G02*
X57105500Y-90059500I0J-237500D01*
G01*
X57105500Y-90534500D01*
G75*
G02*
X56868000Y-90772000I-237500J0D01*
G01*
X56268000Y-90772000D01*
G75*
G02*
X56030500Y-90534500I0J237500D01*
G01*
G37*
%TD*%
%TO.C,C20*%
G36*
G01*
X57729000Y-94344500D02*
X57729000Y-93869500D01*
G75*
G02*
X57966500Y-93632000I237500J0D01*
G01*
X58566500Y-93632000D01*
G75*
G02*
X58804000Y-93869500I0J-237500D01*
G01*
X58804000Y-94344500D01*
G75*
G02*
X58566500Y-94582000I-237500J0D01*
G01*
X57966500Y-94582000D01*
G75*
G02*
X57729000Y-94344500I0J237500D01*
G01*
G37*
G36*
G01*
X56004000Y-94344500D02*
X56004000Y-93869500D01*
G75*
G02*
X56241500Y-93632000I237500J0D01*
G01*
X56841500Y-93632000D01*
G75*
G02*
X57079000Y-93869500I0J-237500D01*
G01*
X57079000Y-94344500D01*
G75*
G02*
X56841500Y-94582000I-237500J0D01*
G01*
X56241500Y-94582000D01*
G75*
G02*
X56004000Y-94344500I0J237500D01*
G01*
G37*
%TD*%
M02*
