%TF.GenerationSoftware,KiCad,Pcbnew,(5.1.9)-1*%
%TF.CreationDate,2022-07-01T06:07:01-07:00*%
%TF.ProjectId,GALIL,47414c49-4c2e-46b6-9963-61645f706362,rev?*%
%TF.SameCoordinates,Original*%
%TF.FileFunction,Legend,Bot*%
%TF.FilePolarity,Positive*%
%FSLAX46Y46*%
G04 Gerber Fmt 4.6, Leading zero omitted, Abs format (unit mm)*
G04 Created by KiCad (PCBNEW (5.1.9)-1) date 2022-07-01 06:07:01*
%MOMM*%
%LPD*%
G01*
G04 APERTURE LIST*
%ADD10C,0.120000*%
%ADD11C,0.100000*%
%ADD12C,0.150000*%
G04 APERTURE END LIST*
D10*
%TO.C,R10*%
X57672500Y-71374724D02*
X57672500Y-70865276D01*
X56627500Y-71374724D02*
X56627500Y-70865276D01*
%TO.C,R9*%
X59577500Y-71374724D02*
X59577500Y-70865276D01*
X58532500Y-71374724D02*
X58532500Y-70865276D01*
%TO.C,R6*%
X51652224Y-76312500D02*
X51142776Y-76312500D01*
X51652224Y-77357500D02*
X51142776Y-77357500D01*
%TO.C,R5*%
X51689724Y-74407500D02*
X51180276Y-74407500D01*
X51689724Y-75452500D02*
X51180276Y-75452500D01*
%TO.C,R4*%
X51652224Y-70597500D02*
X51142776Y-70597500D01*
X51652224Y-71642500D02*
X51142776Y-71642500D01*
%TO.C,R3*%
X61482500Y-66929724D02*
X61482500Y-66420276D01*
X60437500Y-66929724D02*
X60437500Y-66420276D01*
%TO.C,C3*%
X51581267Y-78230000D02*
X51288733Y-78230000D01*
X51581267Y-79250000D02*
X51288733Y-79250000D01*
%TO.C,C2*%
X51648767Y-72515000D02*
X51356233Y-72515000D01*
X51648767Y-73535000D02*
X51356233Y-73535000D01*
%TO.C,C1*%
X51581267Y-68705000D02*
X51288733Y-68705000D01*
X51581267Y-69725000D02*
X51288733Y-69725000D01*
%TO.C,SW3*%
X51214786Y-92350000D02*
G75*
G03*
X51214786Y-92350000I-7506523J0D01*
G01*
X49075000Y-97600000D02*
X53975000Y-97600000D01*
X53975000Y-86400000D02*
X53975000Y-85000000D01*
X53975000Y-85000000D02*
X47975000Y-85000000D01*
X47975000Y-85000000D02*
X47975000Y-86100000D01*
X53975000Y-97600000D02*
X53975000Y-96600000D01*
%TO.C,SW2*%
X38790000Y-111570000D02*
X38790000Y-110645000D01*
X42490000Y-111570000D02*
X42490000Y-106870000D01*
X40915000Y-106770000D02*
X40365000Y-106770000D01*
X40915000Y-111670000D02*
X40365000Y-111670000D01*
X38790000Y-107795000D02*
X38790000Y-106870000D01*
%TO.C,SW1*%
X41344200Y-68323600D02*
X41089464Y-67839254D01*
X43388900Y-81049000D02*
X43452400Y-81049000D01*
X41128300Y-81099800D02*
X41433100Y-80426700D01*
D11*
G36*
X36200700Y-73623733D02*
G01*
X36200700Y-75308600D01*
X36632500Y-75308600D01*
X36632500Y-73556000D01*
X36207538Y-73556000D01*
X36200700Y-73530600D01*
X36200700Y-73556000D01*
X36175300Y-73556000D01*
X36200700Y-73623733D01*
G37*
X36200700Y-73623733D02*
X36200700Y-75308600D01*
X36632500Y-75308600D01*
X36632500Y-73556000D01*
X36207538Y-73556000D01*
X36200700Y-73530600D01*
X36200700Y-73556000D01*
X36175300Y-73556000D01*
X36200700Y-73623733D01*
D10*
X43300000Y-80414000D02*
X48126000Y-80414000D01*
X39490000Y-76858000D02*
X41522000Y-80160000D01*
X39490000Y-71778000D02*
X39490000Y-76858000D01*
X41522000Y-68730000D02*
X39490000Y-71778000D01*
X48126000Y-68730000D02*
X43300000Y-68730000D01*
X48126000Y-68730000D02*
X48100600Y-80414000D01*
X41089465Y-67839255D02*
G75*
G03*
X41115600Y-81112500I2794735J-6631145D01*
G01*
X41346651Y-68323309D02*
G75*
G03*
X41433100Y-80426700I2689949J-6032791D01*
G01*
%TO.C,R57*%
X57252776Y-87771500D02*
X57762224Y-87771500D01*
X57252776Y-86726500D02*
X57762224Y-86726500D01*
%TO.C,R56*%
X57125776Y-92597500D02*
X57635224Y-92597500D01*
X57125776Y-91552500D02*
X57635224Y-91552500D01*
%TO.C,R55*%
X57172776Y-96407500D02*
X57682224Y-96407500D01*
X57172776Y-95362500D02*
X57682224Y-95362500D01*
%TO.C,Q1*%
X62625000Y-69540000D02*
X62625000Y-70470000D01*
X62625000Y-72700000D02*
X62625000Y-71770000D01*
X62625000Y-72700000D02*
X60465000Y-72700000D01*
X62625000Y-69540000D02*
X61165000Y-69540000D01*
%TO.C,MOSFET1*%
X57025000Y-68255000D02*
X57025000Y-67325000D01*
X57025000Y-65095000D02*
X57025000Y-66025000D01*
X57025000Y-65095000D02*
X59185000Y-65095000D01*
X57025000Y-68255000D02*
X58485000Y-68255000D01*
%TO.C,C22*%
X57411233Y-85981000D02*
X57703767Y-85981000D01*
X57411233Y-84961000D02*
X57703767Y-84961000D01*
%TO.C,C21*%
X57284233Y-90807000D02*
X57576767Y-90807000D01*
X57284233Y-89787000D02*
X57576767Y-89787000D01*
%TO.C,C20*%
X57257733Y-94617000D02*
X57550267Y-94617000D01*
X57257733Y-93597000D02*
X57550267Y-93597000D01*
%TO.C,U1*%
D12*
X88671304Y-121626380D02*
X88671304Y-122435904D01*
X88623685Y-122531142D01*
X88576066Y-122578761D01*
X88480828Y-122626380D01*
X88290352Y-122626380D01*
X88195114Y-122578761D01*
X88147495Y-122531142D01*
X88099876Y-122435904D01*
X88099876Y-121626380D01*
X87099876Y-122626380D02*
X87671304Y-122626380D01*
X87385590Y-122626380D02*
X87385590Y-121626380D01*
X87480828Y-121769238D01*
X87576066Y-121864476D01*
X87671304Y-121912095D01*
%TO.C,R10*%
X57576980Y-73601342D02*
X57100790Y-73268009D01*
X57576980Y-73029914D02*
X56576980Y-73029914D01*
X56576980Y-73410866D01*
X56624600Y-73506104D01*
X56672219Y-73553723D01*
X56767457Y-73601342D01*
X56910314Y-73601342D01*
X57005552Y-73553723D01*
X57053171Y-73506104D01*
X57100790Y-73410866D01*
X57100790Y-73029914D01*
X57576980Y-74553723D02*
X57576980Y-73982295D01*
X57576980Y-74268009D02*
X56576980Y-74268009D01*
X56719838Y-74172771D01*
X56815076Y-74077533D01*
X56862695Y-73982295D01*
X56576980Y-75172771D02*
X56576980Y-75268009D01*
X56624600Y-75363247D01*
X56672219Y-75410866D01*
X56767457Y-75458485D01*
X56957933Y-75506104D01*
X57196028Y-75506104D01*
X57386504Y-75458485D01*
X57481742Y-75410866D01*
X57529361Y-75363247D01*
X57576980Y-75268009D01*
X57576980Y-75172771D01*
X57529361Y-75077533D01*
X57481742Y-75029914D01*
X57386504Y-74982295D01*
X57196028Y-74934676D01*
X56957933Y-74934676D01*
X56767457Y-74982295D01*
X56672219Y-75029914D01*
X56624600Y-75077533D01*
X56576980Y-75172771D01*
%TO.C,R9*%
X59532780Y-73671133D02*
X59056590Y-73337800D01*
X59532780Y-73099704D02*
X58532780Y-73099704D01*
X58532780Y-73480657D01*
X58580400Y-73575895D01*
X58628019Y-73623514D01*
X58723257Y-73671133D01*
X58866114Y-73671133D01*
X58961352Y-73623514D01*
X59008971Y-73575895D01*
X59056590Y-73480657D01*
X59056590Y-73099704D01*
X59532780Y-74147323D02*
X59532780Y-74337800D01*
X59485161Y-74433038D01*
X59437542Y-74480657D01*
X59294685Y-74575895D01*
X59104209Y-74623514D01*
X58723257Y-74623514D01*
X58628019Y-74575895D01*
X58580400Y-74528276D01*
X58532780Y-74433038D01*
X58532780Y-74242561D01*
X58580400Y-74147323D01*
X58628019Y-74099704D01*
X58723257Y-74052085D01*
X58961352Y-74052085D01*
X59056590Y-74099704D01*
X59104209Y-74147323D01*
X59151828Y-74242561D01*
X59151828Y-74433038D01*
X59104209Y-74528276D01*
X59056590Y-74575895D01*
X58961352Y-74623514D01*
%TO.C,R6*%
X48985466Y-77388980D02*
X49318800Y-76912790D01*
X49556895Y-77388980D02*
X49556895Y-76388980D01*
X49175942Y-76388980D01*
X49080704Y-76436600D01*
X49033085Y-76484219D01*
X48985466Y-76579457D01*
X48985466Y-76722314D01*
X49033085Y-76817552D01*
X49080704Y-76865171D01*
X49175942Y-76912790D01*
X49556895Y-76912790D01*
X48128323Y-76388980D02*
X48318800Y-76388980D01*
X48414038Y-76436600D01*
X48461657Y-76484219D01*
X48556895Y-76627076D01*
X48604514Y-76817552D01*
X48604514Y-77198504D01*
X48556895Y-77293742D01*
X48509276Y-77341361D01*
X48414038Y-77388980D01*
X48223561Y-77388980D01*
X48128323Y-77341361D01*
X48080704Y-77293742D01*
X48033085Y-77198504D01*
X48033085Y-76960409D01*
X48080704Y-76865171D01*
X48128323Y-76817552D01*
X48223561Y-76769933D01*
X48414038Y-76769933D01*
X48509276Y-76817552D01*
X48556895Y-76865171D01*
X48604514Y-76960409D01*
%TO.C,R5*%
X49010866Y-75534780D02*
X49344200Y-75058590D01*
X49582295Y-75534780D02*
X49582295Y-74534780D01*
X49201342Y-74534780D01*
X49106104Y-74582400D01*
X49058485Y-74630019D01*
X49010866Y-74725257D01*
X49010866Y-74868114D01*
X49058485Y-74963352D01*
X49106104Y-75010971D01*
X49201342Y-75058590D01*
X49582295Y-75058590D01*
X48106104Y-74534780D02*
X48582295Y-74534780D01*
X48629914Y-75010971D01*
X48582295Y-74963352D01*
X48487057Y-74915733D01*
X48248961Y-74915733D01*
X48153723Y-74963352D01*
X48106104Y-75010971D01*
X48058485Y-75106209D01*
X48058485Y-75344304D01*
X48106104Y-75439542D01*
X48153723Y-75487161D01*
X48248961Y-75534780D01*
X48487057Y-75534780D01*
X48582295Y-75487161D01*
X48629914Y-75439542D01*
%TO.C,R4*%
X48934666Y-71673980D02*
X49268000Y-71197790D01*
X49506095Y-71673980D02*
X49506095Y-70673980D01*
X49125142Y-70673980D01*
X49029904Y-70721600D01*
X48982285Y-70769219D01*
X48934666Y-70864457D01*
X48934666Y-71007314D01*
X48982285Y-71102552D01*
X49029904Y-71150171D01*
X49125142Y-71197790D01*
X49506095Y-71197790D01*
X48077523Y-71007314D02*
X48077523Y-71673980D01*
X48315619Y-70626361D02*
X48553714Y-71340647D01*
X47934666Y-71340647D01*
%TO.C,R3*%
X63241180Y-66305133D02*
X62764990Y-65971800D01*
X63241180Y-65733704D02*
X62241180Y-65733704D01*
X62241180Y-66114657D01*
X62288800Y-66209895D01*
X62336419Y-66257514D01*
X62431657Y-66305133D01*
X62574514Y-66305133D01*
X62669752Y-66257514D01*
X62717371Y-66209895D01*
X62764990Y-66114657D01*
X62764990Y-65733704D01*
X62241180Y-66638466D02*
X62241180Y-67257514D01*
X62622133Y-66924180D01*
X62622133Y-67067038D01*
X62669752Y-67162276D01*
X62717371Y-67209895D01*
X62812609Y-67257514D01*
X63050704Y-67257514D01*
X63145942Y-67209895D01*
X63193561Y-67162276D01*
X63241180Y-67067038D01*
X63241180Y-66781323D01*
X63193561Y-66686085D01*
X63145942Y-66638466D01*
%TO.C,C3*%
X49036266Y-79122542D02*
X49083885Y-79170161D01*
X49226742Y-79217780D01*
X49321980Y-79217780D01*
X49464838Y-79170161D01*
X49560076Y-79074923D01*
X49607695Y-78979685D01*
X49655314Y-78789209D01*
X49655314Y-78646352D01*
X49607695Y-78455876D01*
X49560076Y-78360638D01*
X49464838Y-78265400D01*
X49321980Y-78217780D01*
X49226742Y-78217780D01*
X49083885Y-78265400D01*
X49036266Y-78313019D01*
X48702933Y-78217780D02*
X48083885Y-78217780D01*
X48417219Y-78598733D01*
X48274361Y-78598733D01*
X48179123Y-78646352D01*
X48131504Y-78693971D01*
X48083885Y-78789209D01*
X48083885Y-79027304D01*
X48131504Y-79122542D01*
X48179123Y-79170161D01*
X48274361Y-79217780D01*
X48560076Y-79217780D01*
X48655314Y-79170161D01*
X48702933Y-79122542D01*
%TO.C,C2*%
X49036266Y-73483742D02*
X49083885Y-73531361D01*
X49226742Y-73578980D01*
X49321980Y-73578980D01*
X49464838Y-73531361D01*
X49560076Y-73436123D01*
X49607695Y-73340885D01*
X49655314Y-73150409D01*
X49655314Y-73007552D01*
X49607695Y-72817076D01*
X49560076Y-72721838D01*
X49464838Y-72626600D01*
X49321980Y-72578980D01*
X49226742Y-72578980D01*
X49083885Y-72626600D01*
X49036266Y-72674219D01*
X48655314Y-72674219D02*
X48607695Y-72626600D01*
X48512457Y-72578980D01*
X48274361Y-72578980D01*
X48179123Y-72626600D01*
X48131504Y-72674219D01*
X48083885Y-72769457D01*
X48083885Y-72864695D01*
X48131504Y-73007552D01*
X48702933Y-73578980D01*
X48083885Y-73578980D01*
%TO.C,C1*%
X48934666Y-69699142D02*
X48982285Y-69746761D01*
X49125142Y-69794380D01*
X49220380Y-69794380D01*
X49363238Y-69746761D01*
X49458476Y-69651523D01*
X49506095Y-69556285D01*
X49553714Y-69365809D01*
X49553714Y-69222952D01*
X49506095Y-69032476D01*
X49458476Y-68937238D01*
X49363238Y-68842000D01*
X49220380Y-68794380D01*
X49125142Y-68794380D01*
X48982285Y-68842000D01*
X48934666Y-68889619D01*
X47982285Y-69794380D02*
X48553714Y-69794380D01*
X48268000Y-69794380D02*
X48268000Y-68794380D01*
X48363238Y-68937238D01*
X48458476Y-69032476D01*
X48553714Y-69080095D01*
%TO.C,SW3*%
X51117333Y-100379161D02*
X50974476Y-100426780D01*
X50736380Y-100426780D01*
X50641142Y-100379161D01*
X50593523Y-100331542D01*
X50545904Y-100236304D01*
X50545904Y-100141066D01*
X50593523Y-100045828D01*
X50641142Y-99998209D01*
X50736380Y-99950590D01*
X50926857Y-99902971D01*
X51022095Y-99855352D01*
X51069714Y-99807733D01*
X51117333Y-99712495D01*
X51117333Y-99617257D01*
X51069714Y-99522019D01*
X51022095Y-99474400D01*
X50926857Y-99426780D01*
X50688761Y-99426780D01*
X50545904Y-99474400D01*
X50212571Y-99426780D02*
X49974476Y-100426780D01*
X49784000Y-99712495D01*
X49593523Y-100426780D01*
X49355428Y-99426780D01*
X49069714Y-99426780D02*
X48450666Y-99426780D01*
X48784000Y-99807733D01*
X48641142Y-99807733D01*
X48545904Y-99855352D01*
X48498285Y-99902971D01*
X48450666Y-99998209D01*
X48450666Y-100236304D01*
X48498285Y-100331542D01*
X48545904Y-100379161D01*
X48641142Y-100426780D01*
X48926857Y-100426780D01*
X49022095Y-100379161D01*
X49069714Y-100331542D01*
%TO.C,SW2*%
X41984561Y-101790666D02*
X42032180Y-101933523D01*
X42032180Y-102171619D01*
X41984561Y-102266857D01*
X41936942Y-102314476D01*
X41841704Y-102362095D01*
X41746466Y-102362095D01*
X41651228Y-102314476D01*
X41603609Y-102266857D01*
X41555990Y-102171619D01*
X41508371Y-101981142D01*
X41460752Y-101885904D01*
X41413133Y-101838285D01*
X41317895Y-101790666D01*
X41222657Y-101790666D01*
X41127419Y-101838285D01*
X41079800Y-101885904D01*
X41032180Y-101981142D01*
X41032180Y-102219238D01*
X41079800Y-102362095D01*
X41032180Y-102695428D02*
X42032180Y-102933523D01*
X41317895Y-103124000D01*
X42032180Y-103314476D01*
X41032180Y-103552571D01*
X41127419Y-103885904D02*
X41079800Y-103933523D01*
X41032180Y-104028761D01*
X41032180Y-104266857D01*
X41079800Y-104362095D01*
X41127419Y-104409714D01*
X41222657Y-104457333D01*
X41317895Y-104457333D01*
X41460752Y-104409714D01*
X42032180Y-103838285D01*
X42032180Y-104457333D01*
%TO.C,SW1*%
X48113133Y-81809361D02*
X47970276Y-81856980D01*
X47732180Y-81856980D01*
X47636942Y-81809361D01*
X47589323Y-81761742D01*
X47541704Y-81666504D01*
X47541704Y-81571266D01*
X47589323Y-81476028D01*
X47636942Y-81428409D01*
X47732180Y-81380790D01*
X47922657Y-81333171D01*
X48017895Y-81285552D01*
X48065514Y-81237933D01*
X48113133Y-81142695D01*
X48113133Y-81047457D01*
X48065514Y-80952219D01*
X48017895Y-80904600D01*
X47922657Y-80856980D01*
X47684561Y-80856980D01*
X47541704Y-80904600D01*
X47208371Y-80856980D02*
X46970276Y-81856980D01*
X46779800Y-81142695D01*
X46589323Y-81856980D01*
X46351228Y-80856980D01*
X45446466Y-81856980D02*
X46017895Y-81856980D01*
X45732180Y-81856980D02*
X45732180Y-80856980D01*
X45827419Y-80999838D01*
X45922657Y-81095076D01*
X46017895Y-81142695D01*
%TO.C,R57*%
X61907657Y-88793580D02*
X62240990Y-88317390D01*
X62479085Y-88793580D02*
X62479085Y-87793580D01*
X62098133Y-87793580D01*
X62002895Y-87841200D01*
X61955276Y-87888819D01*
X61907657Y-87984057D01*
X61907657Y-88126914D01*
X61955276Y-88222152D01*
X62002895Y-88269771D01*
X62098133Y-88317390D01*
X62479085Y-88317390D01*
X61002895Y-87793580D02*
X61479085Y-87793580D01*
X61526704Y-88269771D01*
X61479085Y-88222152D01*
X61383847Y-88174533D01*
X61145752Y-88174533D01*
X61050514Y-88222152D01*
X61002895Y-88269771D01*
X60955276Y-88365009D01*
X60955276Y-88603104D01*
X61002895Y-88698342D01*
X61050514Y-88745961D01*
X61145752Y-88793580D01*
X61383847Y-88793580D01*
X61479085Y-88745961D01*
X61526704Y-88698342D01*
X60621942Y-87793580D02*
X59955276Y-87793580D01*
X60383847Y-88793580D01*
%TO.C,R56*%
X62517257Y-92552780D02*
X62850590Y-92076590D01*
X63088685Y-92552780D02*
X63088685Y-91552780D01*
X62707733Y-91552780D01*
X62612495Y-91600400D01*
X62564876Y-91648019D01*
X62517257Y-91743257D01*
X62517257Y-91886114D01*
X62564876Y-91981352D01*
X62612495Y-92028971D01*
X62707733Y-92076590D01*
X63088685Y-92076590D01*
X61612495Y-91552780D02*
X62088685Y-91552780D01*
X62136304Y-92028971D01*
X62088685Y-91981352D01*
X61993447Y-91933733D01*
X61755352Y-91933733D01*
X61660114Y-91981352D01*
X61612495Y-92028971D01*
X61564876Y-92124209D01*
X61564876Y-92362304D01*
X61612495Y-92457542D01*
X61660114Y-92505161D01*
X61755352Y-92552780D01*
X61993447Y-92552780D01*
X62088685Y-92505161D01*
X62136304Y-92457542D01*
X60707733Y-91552780D02*
X60898209Y-91552780D01*
X60993447Y-91600400D01*
X61041066Y-91648019D01*
X61136304Y-91790876D01*
X61183923Y-91981352D01*
X61183923Y-92362304D01*
X61136304Y-92457542D01*
X61088685Y-92505161D01*
X60993447Y-92552780D01*
X60802971Y-92552780D01*
X60707733Y-92505161D01*
X60660114Y-92457542D01*
X60612495Y-92362304D01*
X60612495Y-92124209D01*
X60660114Y-92028971D01*
X60707733Y-91981352D01*
X60802971Y-91933733D01*
X60993447Y-91933733D01*
X61088685Y-91981352D01*
X61136304Y-92028971D01*
X61183923Y-92124209D01*
%TO.C,R55*%
X61831457Y-96311980D02*
X62164790Y-95835790D01*
X62402885Y-96311980D02*
X62402885Y-95311980D01*
X62021933Y-95311980D01*
X61926695Y-95359600D01*
X61879076Y-95407219D01*
X61831457Y-95502457D01*
X61831457Y-95645314D01*
X61879076Y-95740552D01*
X61926695Y-95788171D01*
X62021933Y-95835790D01*
X62402885Y-95835790D01*
X60926695Y-95311980D02*
X61402885Y-95311980D01*
X61450504Y-95788171D01*
X61402885Y-95740552D01*
X61307647Y-95692933D01*
X61069552Y-95692933D01*
X60974314Y-95740552D01*
X60926695Y-95788171D01*
X60879076Y-95883409D01*
X60879076Y-96121504D01*
X60926695Y-96216742D01*
X60974314Y-96264361D01*
X61069552Y-96311980D01*
X61307647Y-96311980D01*
X61402885Y-96264361D01*
X61450504Y-96216742D01*
X59974314Y-95311980D02*
X60450504Y-95311980D01*
X60498123Y-95788171D01*
X60450504Y-95740552D01*
X60355266Y-95692933D01*
X60117171Y-95692933D01*
X60021933Y-95740552D01*
X59974314Y-95788171D01*
X59926695Y-95883409D01*
X59926695Y-96121504D01*
X59974314Y-96216742D01*
X60021933Y-96264361D01*
X60117171Y-96311980D01*
X60355266Y-96311980D01*
X60450504Y-96264361D01*
X60498123Y-96216742D01*
%TO.C,Q1*%
X61960238Y-74167619D02*
X62055476Y-74120000D01*
X62150714Y-74024761D01*
X62293571Y-73881904D01*
X62388809Y-73834285D01*
X62484047Y-73834285D01*
X62436428Y-74072380D02*
X62531666Y-74024761D01*
X62626904Y-73929523D01*
X62674523Y-73739047D01*
X62674523Y-73405714D01*
X62626904Y-73215238D01*
X62531666Y-73120000D01*
X62436428Y-73072380D01*
X62245952Y-73072380D01*
X62150714Y-73120000D01*
X62055476Y-73215238D01*
X62007857Y-73405714D01*
X62007857Y-73739047D01*
X62055476Y-73929523D01*
X62150714Y-74024761D01*
X62245952Y-74072380D01*
X62436428Y-74072380D01*
X61055476Y-74072380D02*
X61626904Y-74072380D01*
X61341190Y-74072380D02*
X61341190Y-73072380D01*
X61436428Y-73215238D01*
X61531666Y-73310476D01*
X61626904Y-73358095D01*
%TO.C,C22*%
X58046857Y-84354942D02*
X58094476Y-84402561D01*
X58237333Y-84450180D01*
X58332571Y-84450180D01*
X58475428Y-84402561D01*
X58570666Y-84307323D01*
X58618285Y-84212085D01*
X58665904Y-84021609D01*
X58665904Y-83878752D01*
X58618285Y-83688276D01*
X58570666Y-83593038D01*
X58475428Y-83497800D01*
X58332571Y-83450180D01*
X58237333Y-83450180D01*
X58094476Y-83497800D01*
X58046857Y-83545419D01*
X57665904Y-83545419D02*
X57618285Y-83497800D01*
X57523047Y-83450180D01*
X57284952Y-83450180D01*
X57189714Y-83497800D01*
X57142095Y-83545419D01*
X57094476Y-83640657D01*
X57094476Y-83735895D01*
X57142095Y-83878752D01*
X57713523Y-84450180D01*
X57094476Y-84450180D01*
X56713523Y-83545419D02*
X56665904Y-83497800D01*
X56570666Y-83450180D01*
X56332571Y-83450180D01*
X56237333Y-83497800D01*
X56189714Y-83545419D01*
X56142095Y-83640657D01*
X56142095Y-83735895D01*
X56189714Y-83878752D01*
X56761142Y-84450180D01*
X56142095Y-84450180D01*
%TO.C,C21*%
X61958457Y-90679542D02*
X62006076Y-90727161D01*
X62148933Y-90774780D01*
X62244171Y-90774780D01*
X62387028Y-90727161D01*
X62482266Y-90631923D01*
X62529885Y-90536685D01*
X62577504Y-90346209D01*
X62577504Y-90203352D01*
X62529885Y-90012876D01*
X62482266Y-89917638D01*
X62387028Y-89822400D01*
X62244171Y-89774780D01*
X62148933Y-89774780D01*
X62006076Y-89822400D01*
X61958457Y-89870019D01*
X61577504Y-89870019D02*
X61529885Y-89822400D01*
X61434647Y-89774780D01*
X61196552Y-89774780D01*
X61101314Y-89822400D01*
X61053695Y-89870019D01*
X61006076Y-89965257D01*
X61006076Y-90060495D01*
X61053695Y-90203352D01*
X61625123Y-90774780D01*
X61006076Y-90774780D01*
X60053695Y-90774780D02*
X60625123Y-90774780D01*
X60339409Y-90774780D02*
X60339409Y-89774780D01*
X60434647Y-89917638D01*
X60529885Y-90012876D01*
X60625123Y-90060495D01*
%TO.C,C20*%
X61856857Y-94489542D02*
X61904476Y-94537161D01*
X62047333Y-94584780D01*
X62142571Y-94584780D01*
X62285428Y-94537161D01*
X62380666Y-94441923D01*
X62428285Y-94346685D01*
X62475904Y-94156209D01*
X62475904Y-94013352D01*
X62428285Y-93822876D01*
X62380666Y-93727638D01*
X62285428Y-93632400D01*
X62142571Y-93584780D01*
X62047333Y-93584780D01*
X61904476Y-93632400D01*
X61856857Y-93680019D01*
X61475904Y-93680019D02*
X61428285Y-93632400D01*
X61333047Y-93584780D01*
X61094952Y-93584780D01*
X60999714Y-93632400D01*
X60952095Y-93680019D01*
X60904476Y-93775257D01*
X60904476Y-93870495D01*
X60952095Y-94013352D01*
X61523523Y-94584780D01*
X60904476Y-94584780D01*
X60285428Y-93584780D02*
X60190190Y-93584780D01*
X60094952Y-93632400D01*
X60047333Y-93680019D01*
X59999714Y-93775257D01*
X59952095Y-93965733D01*
X59952095Y-94203828D01*
X59999714Y-94394304D01*
X60047333Y-94489542D01*
X60094952Y-94537161D01*
X60190190Y-94584780D01*
X60285428Y-94584780D01*
X60380666Y-94537161D01*
X60428285Y-94489542D01*
X60475904Y-94394304D01*
X60523523Y-94203828D01*
X60523523Y-93965733D01*
X60475904Y-93775257D01*
X60428285Y-93680019D01*
X60380666Y-93632400D01*
X60285428Y-93584780D01*
%TD*%
M02*
