M48
; DRILL file {KiCad (5.1.9)-1} date 07/01/22 06:06:57
; FORMAT={-:-/ absolute / inch / decimal}
; #@! TF.CreationDate,2022-07-01T06:06:57-07:00
; #@! TF.GenerationSoftware,Kicad,Pcbnew,(5.1.9)-1
; #@! TF.FileFunction,Plated,1,2,PTH
FMAT,2
INCH
T1C0.0157
T2C0.0276
T3C0.0295
T4C0.0315
T5C0.0394
T6C0.0430
T7C0.0433
T8C0.0472
T9C0.0560
T10C0.1250
T11C0.1300
T12C0.1378
%
G90
G05
T1
X1.5665Y-4.1125
X1.576Y-4.494
X1.638Y-3.14
X2.0Y-2.65
X2.095Y-2.875
X2.1029Y-2.802
X2.104Y-3.096
X2.1053Y-2.9497
X2.1207Y-2.7089
X2.146Y-3.17
X2.1675Y-3.5
X2.1675Y-3.725
X2.185Y-3.38
X2.2161Y-2.8319
X2.225Y-3.17
X2.25Y-3.825
X2.3365Y-3.7064
X2.342Y-5.94
X2.3465Y-3.5509
X2.348Y-3.222
X2.353Y-3.354
X2.3646Y-3.625
X2.375Y-3.975
X2.375Y-3.425
X2.3981Y-3.3536
X2.425Y-3.875
X2.4323Y-2.7611
X2.436Y-3.108
X2.45Y-2.675
X2.49Y-3.167
X2.564Y-3.215
X2.575Y-4.0
X2.625Y-5.425
X2.625Y-6.05
X2.656Y-3.568
X2.683Y-2.572
X2.6925Y-3.9181
X2.72Y-2.847
X2.7402Y-3.3736
X2.814Y-4.177
X2.8351Y-3.1349
X2.897Y-3.159
X2.938Y-3.572
X3.1822Y-3.5058
X3.541Y-3.948
X3.581Y-3.78
X3.631Y-3.552
X3.643Y-2.712
X3.65Y-2.826
X3.651Y-4.818
X3.6529Y-2.8971
X3.654Y-3.985
X3.665Y-3.782
X3.6712Y-3.4069
X3.6721Y-3.8811
X3.7Y-5.425
X3.7Y-6.0
X3.7034Y-2.7495
X3.726Y-3.983
X3.734Y-3.763
X3.7399Y-3.5539
X3.742Y-3.4069
X3.75Y-4.9328
X3.8563Y-2.5461
X3.881Y-2.6085
X3.8823Y-4.0748
X3.884Y-4.751
X3.9162Y-4.4026
X4.0305Y-3.9282
X4.061Y-5.271
X4.073Y-4.483
X4.0876Y-2.4914
X4.0877Y-3.0858
X4.0877Y-3.187
X4.0898Y-4.1323
X4.1Y-2.925
X4.1018Y-2.5281
X4.1059Y-2.7502
X4.1098Y-2.6531
X4.134Y-3.329
X4.1463Y-4.027
X4.1509Y-3.9774
X4.1534Y-3.934
X4.1575Y-3.4985
X4.1672Y-4.0997
X4.2Y-2.9
X4.204Y-3.61
X4.213Y-2.437
X4.225Y-5.2
X4.2285Y-2.95
X4.2345Y-2.532
X4.239Y-4.723
X4.2441Y-4.9859
X4.2586Y-3.266
X4.266Y-5.3
X4.2706Y-4.2156
X4.2709Y-4.8109
X4.298Y-3.997
X4.3065Y-2.757
X4.3116Y-4.5315
X4.3843Y-3.6752
X4.4Y-5.15
X4.416Y-2.378
X4.4193Y-3.1898
X4.465Y-4.58
X4.4875Y-2.893
X4.4901Y-2.8105
X4.5379Y-2.7669
X4.582Y-2.8105
X4.6219Y-5.0469
X4.625Y-4.709
X4.632Y-4.429
X4.633Y-5.207
X4.6461Y-3.4443
X4.6677Y-3.1193
X4.6681Y-4.3008
X4.6755Y-3.0656
X4.7075Y-3.9115
X4.7086Y-2.8742
X4.7179Y-2.9862
X4.7368Y-2.8
X4.737Y-5.6374
X4.7374Y-2.8461
X4.7381Y-2.7606
X4.742Y-3.48
X4.75Y-3.6
X4.7548Y-2.705
X4.7795Y-3.3043
X4.796Y-5.976
X4.7972Y-3.4236
X4.8035Y-3.0979
X4.8091Y-3.1823
X4.816Y-2.651
X4.8556Y-3.2989
X4.856Y-3.093
X4.8637Y-3.9257
X4.8669Y-3.6169
X4.8909Y-4.0346
X4.905Y-4.605
X4.9098Y-2.5565
X4.9217Y-5.6617
X4.9284Y-3.9461
X4.9287Y-3.9945
X4.975Y-5.35
X5.018Y-2.282
X5.0292Y-5.5542
X5.0858Y-2.8386
X5.1005Y-2.7374
X5.11Y-4.68
X5.1412Y-4.547
X5.1449Y-3.5531
X5.1524Y-2.5568
X5.1594Y-3.8576
X5.1594Y-3.9926
X5.19Y-4.595
X5.1905Y-4.0255
X5.192Y-5.688
X5.2085Y-2.5568
X5.2419Y-2.7195
X5.25Y-2.5169
X5.25Y-4.55
X5.2945Y-2.5726
X5.33Y-3.3361
X5.3458Y-2.828
X5.3474Y-2.5858
X5.3719Y-2.7985
X5.394Y-2.5936
X5.3949Y-3.3601
X5.4102Y-2.7892
X5.424Y-4.434
X5.425Y-4.959
X5.4272Y-3.9775
X5.428Y-5.106
X5.431Y-5.254
X5.432Y-4.8
X5.434Y-5.398
X5.436Y-4.536
X5.4362Y-4.6667
X5.4402Y-3.9152
X5.4612Y-3.6466
X5.48Y-4.57
X5.5404Y-3.621
X5.542Y-3.433
X5.555Y-3.9926
X5.56Y-3.385
X5.595Y-3.929
X5.6447Y-3.653
X5.665Y-4.0159
X5.675Y-5.669
X5.7013Y-2.6709
X5.738Y-3.614
X5.74Y-3.41
X5.8335Y-2.7735
X5.838Y-2.95
X5.909Y-4.883
X5.923Y-2.594
X5.975Y-5.045
X5.98Y-4.495
X5.9815Y-2.964
X5.9815Y-3.8339
X5.9968Y-2.736
X6.0Y-3.225
X6.0024Y-2.775
X6.0064Y-4.1127
X6.007Y-2.8141
X6.01Y-4.435
X6.0192Y-3.7006
X6.0471Y-4.3451
X6.0585Y-3.0995
X6.063Y-2.871
X6.065Y-4.825
X6.0726Y-3.5228
X6.0735Y-3.4727
X6.0737Y-3.9678
X6.086Y-3.192
X6.087Y-4.3451
X6.0991Y-3.5991
X6.124Y-2.651
X6.1264Y-4.2165
X6.13Y-3.023
X6.13Y-4.585
X6.1541Y-4.1546
X6.1587Y-4.08
X6.1597Y-3.7093
X6.175Y-3.575
X6.1779Y-4.024
X6.1862Y-4.265
X6.196Y-3.138
X6.211Y-2.466
X6.215Y-4.0799
X6.2238Y-4.2341
X6.225Y-4.83
X6.2306Y-4.3685
X6.3096Y-3.9646
X6.315Y-3.545
X6.32Y-3.41
X6.32Y-4.99
X6.3222Y-5.0622
X6.345Y-4.355
X6.3563Y-3.9037
X6.375Y-3.1705
X6.3778Y-4.2109
X6.4Y-2.825
X6.4163Y-4.5573
X6.42Y-3.142
X6.44Y-2.59
X6.444Y-4.3943
X6.45Y-5.115
X6.45Y-3.3239
X6.455Y-5.045
X6.46Y-4.6
X6.465Y-5.325
X6.4679Y-4.9944
X6.475Y-4.86
X6.4787Y-5.1506
X6.4833Y-4.5388
X6.4948Y-5.2548
X6.5015Y-4.6092
X6.517Y-3.42
X6.525Y-4.815
X6.525Y-4.995
X6.5337Y-3.9394
X6.5643Y-4.1831
X6.5644Y-4.2413
X6.5809Y-4.6902
X6.5825Y-4.4208
X6.605Y-4.99
X6.6266Y-4.5961
X6.6287Y-4.1398
X6.6502Y-4.2483
X6.6544Y-3.96
X6.6705Y-4.1976
X6.6724Y-4.1559
X6.71Y-4.455
X6.7701Y-4.2172
X6.7901Y-4.0533
X6.7918Y-4.2781
X6.8024Y-4.2398
X6.808Y-2.594
X6.8138Y-3.9776
X6.817Y-3.425
X6.825Y-3.055
X6.8289Y-4.1768
X6.8307Y-5.3252
X6.86Y-2.735
X6.86Y-3.215
X6.8756Y-5.4099
X6.9073Y-4.3967
X6.9126Y-4.8025
X6.9132Y-4.6323
X6.9223Y-4.2013
X6.9385Y-4.8595
X6.94Y-4.975
X6.9407Y-4.6818
X6.9491Y-4.4722
X6.9672Y-4.2705
X6.996Y-4.141
X7.082Y-4.688
X7.086Y-4.87
X7.092Y-4.49
X7.15Y-4.0269
X7.1539Y-4.26
X7.203Y-3.446
X7.2444Y-3.0346
X7.2461Y-5.5531
X7.251Y-5.13
X7.2841Y-4.8509
X7.2941Y-4.6559
X7.31Y-4.235
X7.31Y-4.44
T2
X3.7411Y-2.8886
X3.7411Y-2.9674
X3.8198Y-2.8886
X3.8198Y-2.9674
X3.8985Y-2.8886
X3.8985Y-2.9674
T3
X3.5151Y-2.628
X3.5151Y-2.728
X3.5151Y-2.828
X3.5151Y-2.928
X3.5151Y-3.028
T4
X4.75Y-4.075
X4.75Y-4.175
X4.75Y-4.275
X4.75Y-4.375
X4.75Y-4.475
X4.75Y-4.575
X4.75Y-4.675
X4.75Y-4.775
X4.75Y-4.875
X4.75Y-4.975
X4.75Y-5.075
X4.75Y-5.175
X4.75Y-5.275
X4.75Y-5.375
X4.95Y-2.775
X4.95Y-2.875
X4.95Y-3.05
X4.95Y-3.15
X4.95Y-3.375
X4.95Y-3.475
X4.95Y-3.575
X4.95Y-3.675
X5.25Y-2.775
X5.25Y-2.875
X5.25Y-3.05
X5.25Y-3.15
X5.25Y-3.375
X5.25Y-3.475
X5.25Y-3.575
X5.25Y-3.675
X5.35Y-4.075
X5.35Y-4.175
X5.35Y-4.275
X5.35Y-4.375
X5.35Y-4.475
X5.35Y-4.575
X5.35Y-4.675
X5.35Y-4.775
X5.35Y-4.875
X5.35Y-4.975
X5.35Y-5.075
X5.35Y-5.175
X5.35Y-5.275
X5.35Y-5.375
T5
X4.925Y-2.35
X4.925Y-2.45
X5.025Y-2.35
X5.025Y-2.45
X5.125Y-2.35
X5.125Y-2.45
X5.225Y-2.35
X5.225Y-2.45
X5.325Y-2.35
X5.325Y-2.45
X6.345Y-4.735
X6.375Y-2.35
X6.375Y-2.45
X6.445Y-4.735
X6.475Y-2.35
X6.475Y-2.45
X6.545Y-4.735
X6.575Y-2.35
X6.575Y-2.45
X6.645Y-4.735
X6.675Y-2.35
X6.675Y-2.45
X6.745Y-4.735
X6.775Y-2.35
X6.775Y-2.45
T6
X1.7017Y-2.8324
X1.7037Y-3.0294
T7
X1.56Y-3.6358
X1.938Y-3.8091
X1.975Y-6.075
X2.075Y-6.075
X2.175Y-6.075
X3.025Y-6.075
X3.125Y-6.075
X3.225Y-6.075
X7.206Y-3.612
X7.206Y-3.712
X7.206Y-3.812
T8
X1.627Y-5.545
X1.627Y-5.695
X1.627Y-5.845
X1.938Y-3.4075
T9
X2.1242Y-2.4403
X2.2242Y-2.4403
X2.3242Y-2.4403
X2.4242Y-2.4403
X2.5242Y-2.4403
X2.6242Y-2.4403
X2.7242Y-2.4403
X2.8242Y-2.4403
X2.9242Y-2.4403
X3.395Y-2.378
X3.395Y-2.478
X3.395Y-2.578
X3.395Y-2.678
X3.395Y-2.778
X3.395Y-2.878
X3.395Y-2.978
X3.395Y-3.078
X3.395Y-3.178
X3.395Y-3.278
X3.395Y-3.378
X3.395Y-3.478
X3.395Y-3.578
X3.395Y-3.678
X3.395Y-3.778
X3.395Y-3.878
X3.395Y-3.978
X3.395Y-4.078
X3.395Y-4.178
X3.395Y-4.278
X3.395Y-4.378
X3.395Y-4.478
X3.395Y-4.578
X3.395Y-4.678
X3.495Y-4.178
X3.595Y-4.178
X3.695Y-4.178
X3.795Y-4.178
X3.895Y-2.478
X3.895Y-4.178
X3.995Y-2.378
X3.995Y-2.478
X3.995Y-2.578
X3.995Y-2.678
X3.995Y-2.778
X3.995Y-2.878
X3.995Y-2.978
X3.995Y-3.078
X3.995Y-3.178
X3.995Y-3.278
X3.995Y-3.378
X3.995Y-3.478
X3.995Y-3.578
X3.995Y-3.678
X3.995Y-3.778
X3.995Y-3.878
X3.995Y-3.978
X3.995Y-4.078
X3.995Y-4.178
X3.995Y-4.278
X3.995Y-4.378
X3.995Y-4.478
X3.995Y-4.578
X3.995Y-4.678
T10
X4.575Y-2.4
X5.675Y-2.4
X6.025Y-2.4
X7.125Y-2.4
T11
X1.622Y-6.126
X1.625Y-2.375
X4.497Y-6.125
X7.372Y-6.126
X7.3774Y-2.375
T12
X1.8557Y-2.4929
X1.8557Y-4.9043
X3.1943Y-2.4929
X3.1943Y-4.9083
T0
M30
