%TF.GenerationSoftware,KiCad,Pcbnew,(5.1.9)-1*%
%TF.CreationDate,2022-07-01T06:07:01-07:00*%
%TF.ProjectId,GALIL,47414c49-4c2e-46b6-9963-61645f706362,rev?*%
%TF.SameCoordinates,Original*%
%TF.FileFunction,Paste,Bot*%
%TF.FilePolarity,Positive*%
%FSLAX46Y46*%
G04 Gerber Fmt 4.6, Leading zero omitted, Abs format (unit mm)*
G04 Created by KiCad (PCBNEW (5.1.9)-1) date 2022-07-01 06:07:01*
%MOMM*%
%LPD*%
G01*
G04 APERTURE LIST*
%ADD10R,2.000000X2.000000*%
%ADD11R,1.200000X1.000000*%
%ADD12R,1.000000X1.550000*%
%ADD13R,1.700000X1.700000*%
%ADD14R,1.800000X1.900000*%
%ADD15R,0.900000X0.800000*%
G04 APERTURE END LIST*
%TO.C,R10*%
G36*
G01*
X57387500Y-70695000D02*
X56912500Y-70695000D01*
G75*
G02*
X56675000Y-70457500I0J237500D01*
G01*
X56675000Y-69957500D01*
G75*
G02*
X56912500Y-69720000I237500J0D01*
G01*
X57387500Y-69720000D01*
G75*
G02*
X57625000Y-69957500I0J-237500D01*
G01*
X57625000Y-70457500D01*
G75*
G02*
X57387500Y-70695000I-237500J0D01*
G01*
G37*
G36*
G01*
X57387500Y-72520000D02*
X56912500Y-72520000D01*
G75*
G02*
X56675000Y-72282500I0J237500D01*
G01*
X56675000Y-71782500D01*
G75*
G02*
X56912500Y-71545000I237500J0D01*
G01*
X57387500Y-71545000D01*
G75*
G02*
X57625000Y-71782500I0J-237500D01*
G01*
X57625000Y-72282500D01*
G75*
G02*
X57387500Y-72520000I-237500J0D01*
G01*
G37*
%TD*%
%TO.C,R9*%
G36*
G01*
X59292500Y-70695000D02*
X58817500Y-70695000D01*
G75*
G02*
X58580000Y-70457500I0J237500D01*
G01*
X58580000Y-69957500D01*
G75*
G02*
X58817500Y-69720000I237500J0D01*
G01*
X59292500Y-69720000D01*
G75*
G02*
X59530000Y-69957500I0J-237500D01*
G01*
X59530000Y-70457500D01*
G75*
G02*
X59292500Y-70695000I-237500J0D01*
G01*
G37*
G36*
G01*
X59292500Y-72520000D02*
X58817500Y-72520000D01*
G75*
G02*
X58580000Y-72282500I0J237500D01*
G01*
X58580000Y-71782500D01*
G75*
G02*
X58817500Y-71545000I237500J0D01*
G01*
X59292500Y-71545000D01*
G75*
G02*
X59530000Y-71782500I0J-237500D01*
G01*
X59530000Y-72282500D01*
G75*
G02*
X59292500Y-72520000I-237500J0D01*
G01*
G37*
%TD*%
%TO.C,R6*%
G36*
G01*
X50972500Y-76597500D02*
X50972500Y-77072500D01*
G75*
G02*
X50735000Y-77310000I-237500J0D01*
G01*
X50235000Y-77310000D01*
G75*
G02*
X49997500Y-77072500I0J237500D01*
G01*
X49997500Y-76597500D01*
G75*
G02*
X50235000Y-76360000I237500J0D01*
G01*
X50735000Y-76360000D01*
G75*
G02*
X50972500Y-76597500I0J-237500D01*
G01*
G37*
G36*
G01*
X52797500Y-76597500D02*
X52797500Y-77072500D01*
G75*
G02*
X52560000Y-77310000I-237500J0D01*
G01*
X52060000Y-77310000D01*
G75*
G02*
X51822500Y-77072500I0J237500D01*
G01*
X51822500Y-76597500D01*
G75*
G02*
X52060000Y-76360000I237500J0D01*
G01*
X52560000Y-76360000D01*
G75*
G02*
X52797500Y-76597500I0J-237500D01*
G01*
G37*
%TD*%
%TO.C,R5*%
G36*
G01*
X51010000Y-74692500D02*
X51010000Y-75167500D01*
G75*
G02*
X50772500Y-75405000I-237500J0D01*
G01*
X50272500Y-75405000D01*
G75*
G02*
X50035000Y-75167500I0J237500D01*
G01*
X50035000Y-74692500D01*
G75*
G02*
X50272500Y-74455000I237500J0D01*
G01*
X50772500Y-74455000D01*
G75*
G02*
X51010000Y-74692500I0J-237500D01*
G01*
G37*
G36*
G01*
X52835000Y-74692500D02*
X52835000Y-75167500D01*
G75*
G02*
X52597500Y-75405000I-237500J0D01*
G01*
X52097500Y-75405000D01*
G75*
G02*
X51860000Y-75167500I0J237500D01*
G01*
X51860000Y-74692500D01*
G75*
G02*
X52097500Y-74455000I237500J0D01*
G01*
X52597500Y-74455000D01*
G75*
G02*
X52835000Y-74692500I0J-237500D01*
G01*
G37*
%TD*%
%TO.C,R4*%
G36*
G01*
X50972500Y-70882500D02*
X50972500Y-71357500D01*
G75*
G02*
X50735000Y-71595000I-237500J0D01*
G01*
X50235000Y-71595000D01*
G75*
G02*
X49997500Y-71357500I0J237500D01*
G01*
X49997500Y-70882500D01*
G75*
G02*
X50235000Y-70645000I237500J0D01*
G01*
X50735000Y-70645000D01*
G75*
G02*
X50972500Y-70882500I0J-237500D01*
G01*
G37*
G36*
G01*
X52797500Y-70882500D02*
X52797500Y-71357500D01*
G75*
G02*
X52560000Y-71595000I-237500J0D01*
G01*
X52060000Y-71595000D01*
G75*
G02*
X51822500Y-71357500I0J237500D01*
G01*
X51822500Y-70882500D01*
G75*
G02*
X52060000Y-70645000I237500J0D01*
G01*
X52560000Y-70645000D01*
G75*
G02*
X52797500Y-70882500I0J-237500D01*
G01*
G37*
%TD*%
%TO.C,R3*%
G36*
G01*
X61197500Y-66250000D02*
X60722500Y-66250000D01*
G75*
G02*
X60485000Y-66012500I0J237500D01*
G01*
X60485000Y-65512500D01*
G75*
G02*
X60722500Y-65275000I237500J0D01*
G01*
X61197500Y-65275000D01*
G75*
G02*
X61435000Y-65512500I0J-237500D01*
G01*
X61435000Y-66012500D01*
G75*
G02*
X61197500Y-66250000I-237500J0D01*
G01*
G37*
G36*
G01*
X61197500Y-68075000D02*
X60722500Y-68075000D01*
G75*
G02*
X60485000Y-67837500I0J237500D01*
G01*
X60485000Y-67337500D01*
G75*
G02*
X60722500Y-67100000I237500J0D01*
G01*
X61197500Y-67100000D01*
G75*
G02*
X61435000Y-67337500I0J-237500D01*
G01*
X61435000Y-67837500D01*
G75*
G02*
X61197500Y-68075000I-237500J0D01*
G01*
G37*
%TD*%
%TO.C,C3*%
G36*
G01*
X51110000Y-78502500D02*
X51110000Y-78977500D01*
G75*
G02*
X50872500Y-79215000I-237500J0D01*
G01*
X50272500Y-79215000D01*
G75*
G02*
X50035000Y-78977500I0J237500D01*
G01*
X50035000Y-78502500D01*
G75*
G02*
X50272500Y-78265000I237500J0D01*
G01*
X50872500Y-78265000D01*
G75*
G02*
X51110000Y-78502500I0J-237500D01*
G01*
G37*
G36*
G01*
X52835000Y-78502500D02*
X52835000Y-78977500D01*
G75*
G02*
X52597500Y-79215000I-237500J0D01*
G01*
X51997500Y-79215000D01*
G75*
G02*
X51760000Y-78977500I0J237500D01*
G01*
X51760000Y-78502500D01*
G75*
G02*
X51997500Y-78265000I237500J0D01*
G01*
X52597500Y-78265000D01*
G75*
G02*
X52835000Y-78502500I0J-237500D01*
G01*
G37*
%TD*%
%TO.C,C2*%
G36*
G01*
X51177500Y-72787500D02*
X51177500Y-73262500D01*
G75*
G02*
X50940000Y-73500000I-237500J0D01*
G01*
X50340000Y-73500000D01*
G75*
G02*
X50102500Y-73262500I0J237500D01*
G01*
X50102500Y-72787500D01*
G75*
G02*
X50340000Y-72550000I237500J0D01*
G01*
X50940000Y-72550000D01*
G75*
G02*
X51177500Y-72787500I0J-237500D01*
G01*
G37*
G36*
G01*
X52902500Y-72787500D02*
X52902500Y-73262500D01*
G75*
G02*
X52665000Y-73500000I-237500J0D01*
G01*
X52065000Y-73500000D01*
G75*
G02*
X51827500Y-73262500I0J237500D01*
G01*
X51827500Y-72787500D01*
G75*
G02*
X52065000Y-72550000I237500J0D01*
G01*
X52665000Y-72550000D01*
G75*
G02*
X52902500Y-72787500I0J-237500D01*
G01*
G37*
%TD*%
%TO.C,C1*%
G36*
G01*
X51110000Y-68977500D02*
X51110000Y-69452500D01*
G75*
G02*
X50872500Y-69690000I-237500J0D01*
G01*
X50272500Y-69690000D01*
G75*
G02*
X50035000Y-69452500I0J237500D01*
G01*
X50035000Y-68977500D01*
G75*
G02*
X50272500Y-68740000I237500J0D01*
G01*
X50872500Y-68740000D01*
G75*
G02*
X51110000Y-68977500I0J-237500D01*
G01*
G37*
G36*
G01*
X52835000Y-68977500D02*
X52835000Y-69452500D01*
G75*
G02*
X52597500Y-69690000I-237500J0D01*
G01*
X51997500Y-69690000D01*
G75*
G02*
X51760000Y-69452500I0J237500D01*
G01*
X51760000Y-68977500D01*
G75*
G02*
X51997500Y-68740000I237500J0D01*
G01*
X52597500Y-68740000D01*
G75*
G02*
X52835000Y-68977500I0J-237500D01*
G01*
G37*
%TD*%
D10*
%TO.C,SW3*%
X51725000Y-85000000D03*
X51775000Y-97750000D03*
D11*
X53975000Y-95850000D03*
X53975000Y-94100000D03*
X53975000Y-92350000D03*
X53975000Y-90600000D03*
X53975000Y-88850000D03*
X53975000Y-87100000D03*
%TD*%
D12*
%TO.C,SW2*%
X39790000Y-111845000D03*
X39790000Y-106595000D03*
X41490000Y-106595000D03*
X41490000Y-111845000D03*
%TD*%
D13*
%TO.C,SW1*%
X42385600Y-79829800D03*
D14*
X47110000Y-76908800D03*
X47110000Y-74445000D03*
X47110000Y-71905000D03*
D13*
X42411000Y-69060200D03*
%TD*%
%TO.C,R57*%
G36*
G01*
X57932500Y-87486500D02*
X57932500Y-87011500D01*
G75*
G02*
X58170000Y-86774000I237500J0D01*
G01*
X58670000Y-86774000D01*
G75*
G02*
X58907500Y-87011500I0J-237500D01*
G01*
X58907500Y-87486500D01*
G75*
G02*
X58670000Y-87724000I-237500J0D01*
G01*
X58170000Y-87724000D01*
G75*
G02*
X57932500Y-87486500I0J237500D01*
G01*
G37*
G36*
G01*
X56107500Y-87486500D02*
X56107500Y-87011500D01*
G75*
G02*
X56345000Y-86774000I237500J0D01*
G01*
X56845000Y-86774000D01*
G75*
G02*
X57082500Y-87011500I0J-237500D01*
G01*
X57082500Y-87486500D01*
G75*
G02*
X56845000Y-87724000I-237500J0D01*
G01*
X56345000Y-87724000D01*
G75*
G02*
X56107500Y-87486500I0J237500D01*
G01*
G37*
%TD*%
%TO.C,R56*%
G36*
G01*
X57805500Y-92312500D02*
X57805500Y-91837500D01*
G75*
G02*
X58043000Y-91600000I237500J0D01*
G01*
X58543000Y-91600000D01*
G75*
G02*
X58780500Y-91837500I0J-237500D01*
G01*
X58780500Y-92312500D01*
G75*
G02*
X58543000Y-92550000I-237500J0D01*
G01*
X58043000Y-92550000D01*
G75*
G02*
X57805500Y-92312500I0J237500D01*
G01*
G37*
G36*
G01*
X55980500Y-92312500D02*
X55980500Y-91837500D01*
G75*
G02*
X56218000Y-91600000I237500J0D01*
G01*
X56718000Y-91600000D01*
G75*
G02*
X56955500Y-91837500I0J-237500D01*
G01*
X56955500Y-92312500D01*
G75*
G02*
X56718000Y-92550000I-237500J0D01*
G01*
X56218000Y-92550000D01*
G75*
G02*
X55980500Y-92312500I0J237500D01*
G01*
G37*
%TD*%
%TO.C,R55*%
G36*
G01*
X57852500Y-96122500D02*
X57852500Y-95647500D01*
G75*
G02*
X58090000Y-95410000I237500J0D01*
G01*
X58590000Y-95410000D01*
G75*
G02*
X58827500Y-95647500I0J-237500D01*
G01*
X58827500Y-96122500D01*
G75*
G02*
X58590000Y-96360000I-237500J0D01*
G01*
X58090000Y-96360000D01*
G75*
G02*
X57852500Y-96122500I0J237500D01*
G01*
G37*
G36*
G01*
X56027500Y-96122500D02*
X56027500Y-95647500D01*
G75*
G02*
X56265000Y-95410000I237500J0D01*
G01*
X56765000Y-95410000D01*
G75*
G02*
X57002500Y-95647500I0J-237500D01*
G01*
X57002500Y-96122500D01*
G75*
G02*
X56765000Y-96360000I-237500J0D01*
G01*
X56265000Y-96360000D01*
G75*
G02*
X56027500Y-96122500I0J237500D01*
G01*
G37*
%TD*%
D15*
%TO.C,Q1*%
X62865000Y-71120000D03*
X60865000Y-70170000D03*
X60865000Y-72070000D03*
%TD*%
%TO.C,MOSFET1*%
X56785000Y-66675000D03*
X58785000Y-67625000D03*
X58785000Y-65725000D03*
%TD*%
%TO.C,C22*%
G36*
G01*
X57882500Y-85708500D02*
X57882500Y-85233500D01*
G75*
G02*
X58120000Y-84996000I237500J0D01*
G01*
X58720000Y-84996000D01*
G75*
G02*
X58957500Y-85233500I0J-237500D01*
G01*
X58957500Y-85708500D01*
G75*
G02*
X58720000Y-85946000I-237500J0D01*
G01*
X58120000Y-85946000D01*
G75*
G02*
X57882500Y-85708500I0J237500D01*
G01*
G37*
G36*
G01*
X56157500Y-85708500D02*
X56157500Y-85233500D01*
G75*
G02*
X56395000Y-84996000I237500J0D01*
G01*
X56995000Y-84996000D01*
G75*
G02*
X57232500Y-85233500I0J-237500D01*
G01*
X57232500Y-85708500D01*
G75*
G02*
X56995000Y-85946000I-237500J0D01*
G01*
X56395000Y-85946000D01*
G75*
G02*
X56157500Y-85708500I0J237500D01*
G01*
G37*
%TD*%
%TO.C,C21*%
G36*
G01*
X57755500Y-90534500D02*
X57755500Y-90059500D01*
G75*
G02*
X57993000Y-89822000I237500J0D01*
G01*
X58593000Y-89822000D01*
G75*
G02*
X58830500Y-90059500I0J-237500D01*
G01*
X58830500Y-90534500D01*
G75*
G02*
X58593000Y-90772000I-237500J0D01*
G01*
X57993000Y-90772000D01*
G75*
G02*
X57755500Y-90534500I0J237500D01*
G01*
G37*
G36*
G01*
X56030500Y-90534500D02*
X56030500Y-90059500D01*
G75*
G02*
X56268000Y-89822000I237500J0D01*
G01*
X56868000Y-89822000D01*
G75*
G02*
X57105500Y-90059500I0J-237500D01*
G01*
X57105500Y-90534500D01*
G75*
G02*
X56868000Y-90772000I-237500J0D01*
G01*
X56268000Y-90772000D01*
G75*
G02*
X56030500Y-90534500I0J237500D01*
G01*
G37*
%TD*%
%TO.C,C20*%
G36*
G01*
X57729000Y-94344500D02*
X57729000Y-93869500D01*
G75*
G02*
X57966500Y-93632000I237500J0D01*
G01*
X58566500Y-93632000D01*
G75*
G02*
X58804000Y-93869500I0J-237500D01*
G01*
X58804000Y-94344500D01*
G75*
G02*
X58566500Y-94582000I-237500J0D01*
G01*
X57966500Y-94582000D01*
G75*
G02*
X57729000Y-94344500I0J237500D01*
G01*
G37*
G36*
G01*
X56004000Y-94344500D02*
X56004000Y-93869500D01*
G75*
G02*
X56241500Y-93632000I237500J0D01*
G01*
X56841500Y-93632000D01*
G75*
G02*
X57079000Y-93869500I0J-237500D01*
G01*
X57079000Y-94344500D01*
G75*
G02*
X56841500Y-94582000I-237500J0D01*
G01*
X56241500Y-94582000D01*
G75*
G02*
X56004000Y-94344500I0J237500D01*
G01*
G37*
%TD*%
M02*
